<?xml version="1.0" encoding="UTF-8"?>
<svg width="58" height="58" fill="none" version="1.1" viewBox="0 0 58 58" xmlns="http://www.w3.org/2000/svg">
 <g filter="url(#filter0_d_148_58)">
  <path d="m25.555 16.246v22.754h-5.6641v-22.754h5.6641zm7.4023 0v4.4141h-20.312v-4.4141h20.312z" fill="#225F3C"/>
 </g>
 <g filter="url(#filter1_d_148_58)">
  <path d="m32.564 34.934c0-0.0638-0.0126-0.1219-0.0376-0.1743-0.0251-0.0547-0.0672-0.1037-0.1265-0.147-0.057-0.0433-0.1344-0.0843-0.2324-0.123-0.098-0.0388-0.2199-0.0752-0.3657-0.1094-0.2507-0.0593-0.4683-0.1242-0.6529-0.1948-0.1823-0.073-0.3338-0.1561-0.4546-0.2496-0.1184-0.0957-0.2073-0.2096-0.2666-0.3417-0.0592-0.1322-0.0888-0.2872-0.0888-0.4649 0-0.1709 0.0376-0.3281 0.1128-0.4717 0.0752-0.1435 0.1811-0.2666 0.3178-0.3691 0.1368-0.1026 0.2985-0.1823 0.4854-0.2393 0.1868-0.0569 0.3908-0.0854 0.6118-0.0854 0.3213 0 0.605 0.0501 0.8511 0.1504 0.2484 0.1002 0.442 0.2426 0.581 0.4272 0.139 0.1823 0.2085 0.4022 0.2085 0.6597h-0.9843c0-0.0957-0.0262-0.1834-0.0787-0.2632-0.0501-0.0798-0.123-0.1436-0.2187-0.1914-0.0957-0.0501-0.2142-0.0752-0.3555-0.0752-0.1367 0-0.2495 0.0216-0.3384 0.0649-0.0888 0.0411-0.1549 0.0946-0.1982 0.1607-0.041 0.0638-0.0615 0.1299-0.0615 0.1982 0 0.057 0.0125 0.1094 0.0376 0.1573 0.0273 0.0478 0.0695 0.0922 0.1264 0.1333 0.0593 0.0387 0.1356 0.0763 0.2291 0.1127 0.0957 0.0342 0.2107 0.0684 0.3452 0.1026 0.2506 0.0547 0.4682 0.1196 0.6528 0.1948 0.1868 0.0729 0.3418 0.1607 0.4648 0.2632 0.1254 0.1025 0.2188 0.2244 0.2803 0.3657 0.0615 0.139 0.0923 0.2997 0.0923 0.4819 0 0.1823-0.0376 0.3453-0.1128 0.4888-0.0729 0.1413-0.1789 0.2609-0.3179 0.3589-0.1367 0.098-0.3019 0.1732-0.4956 0.2256-0.1914 0.0501-0.4056 0.0752-0.6425 0.0752-0.212 0-0.4205-0.0251-0.6255-0.0752-0.2051-0.0501-0.3908-0.1276-0.5572-0.2324-0.1663-0.1071-0.2996-0.2438-0.3999-0.4102-0.0979-0.1663-0.1469-0.3657-0.1469-0.5981h0.9878c0 0.1093 0.0159 0.2028 0.0478 0.2802 0.0342 0.0775 0.0843 0.1413 0.1504 0.1914 0.0684 0.0479 0.1515 0.0832 0.2495 0.106 0.1003 0.0228 0.2153 0.0342 0.3452 0.0342 0.1459 0 0.2609-0.0205 0.3452-0.0615 0.0866-0.0433 0.147-0.0969 0.1812-0.1607 0.0364-0.0638 0.0547-0.1287 0.0547-0.1948zm2.5669 0.6084 0.81-3.5239h0.5059l0.1572 0.5229-0.8271 3.459h-0.5435l-0.1025-0.458zm-0.3145-3.5239 0.6699 3.5034-0.1059 0.4785h-0.5913l-0.9229-3.9819h0.9502zm2.4541 3.5034 0.6665-3.5034h0.9468l-0.9194 3.9819h-0.5845l-0.1094-0.4785zm-0.4614-3.5034 0.8203 3.5273-0.106 0.4546h-0.5434l-0.8477-3.459 0.1675-0.5229h0.5093zm4.2417 1.0356-1.0596 2.9463h-0.9946l1.5723-3.9819h0.6767l-0.1948 1.0356zm1.0459 2.9463-1.0801-2.9463-0.1982-1.0356h0.687l1.5825 3.9819h-0.9912zm-0.0205-1.48v0.7007h-2.2012v-0.7007h2.2012zm3.0488 0.1504h-1.0732v-0.769h1.0732c0.1504 0 0.2746-0.0217 0.3726-0.065 0.098-0.0455 0.1697-0.1059 0.2153-0.1811 0.0479-0.0775 0.0718-0.1652 0.0718-0.2632 0-0.1071-0.0239-0.2062-0.0718-0.2974-0.0456-0.0911-0.1173-0.164-0.2153-0.2187-0.098-0.057-0.2222-0.0855-0.3726-0.0855h-0.7075v3.2095h-0.9844v-3.9819h1.6919c0.3418 0 0.6346 0.0592 0.8784 0.1777 0.2461 0.1185 0.4341 0.2803 0.564 0.4854 0.1322 0.205 0.1982 0.4397 0.1982 0.7041 0 0.1914-0.0376 0.3668-0.1128 0.5263-0.0729 0.1572-0.1811 0.2928-0.3247 0.4068-0.1412 0.1139-0.3133 0.2016-0.5161 0.2631-0.2005 0.0593-0.4295 0.0889-0.687 0.0889z" fill="#225F3C"/>
 </g>
 <circle cx="29" cy="25" r="24.5" filter="url(#filter2_d_148_58)" shape-rendering="crispEdges" stroke="#225f3c"/>
 <defs>
  <filter id="filter0_d_148_58" x="8.6445" y="16.246" width="28.312" height="30.754" color-interpolation-filters="sRGB" filterUnits="userSpaceOnUse">
   <feFlood flood-opacity="0" result="BackgroundImageFix"/>
   <feColorMatrix in="SourceAlpha" result="hardAlpha" values="0 0 0 0 0 0 0 0 0 0 0 0 0 0 0 0 0 0 127 0"/>
   <feOffset dy="4"/>
   <feGaussianBlur stdDeviation="2"/>
   <feComposite in2="hardAlpha" operator="out"/>
   <feColorMatrix values="0 0 0 0 0 0 0 0 0 0 0 0 0 0 0 0 0 0 0.25 0"/>
   <feBlend in2="BackgroundImageFix" result="effect1_dropShadow_148_58"/>
   <feBlend in="SourceGraphic" in2="effect1_dropShadow_148_58" result="shape"/>
  </filter>
  <filter id="filter1_d_148_58" x="26.201" y="31.963" width="24.564" height="12.091" color-interpolation-filters="sRGB" filterUnits="userSpaceOnUse">
   <feFlood flood-opacity="0" result="BackgroundImageFix"/>
   <feColorMatrix in="SourceAlpha" result="hardAlpha" values="0 0 0 0 0 0 0 0 0 0 0 0 0 0 0 0 0 0 127 0"/>
   <feOffset dy="4"/>
   <feGaussianBlur stdDeviation="2"/>
   <feComposite in2="hardAlpha" operator="out"/>
   <feColorMatrix values="0 0 0 0 0 0 0 0 0 0 0 0 0 0 0 0 0 0 0.25 0"/>
   <feBlend in2="BackgroundImageFix" result="effect1_dropShadow_148_58"/>
   <feBlend in="SourceGraphic" in2="effect1_dropShadow_148_58" result="shape"/>
  </filter>
  <filter id="filter2_d_148_58" x="0" y="0" width="58" height="58" color-interpolation-filters="sRGB" filterUnits="userSpaceOnUse">
   <feFlood flood-opacity="0" result="BackgroundImageFix"/>
   <feColorMatrix in="SourceAlpha" result="hardAlpha" values="0 0 0 0 0 0 0 0 0 0 0 0 0 0 0 0 0 0 127 0"/>
   <feOffset dy="4"/>
   <feGaussianBlur stdDeviation="2"/>
   <feComposite in2="hardAlpha" operator="out"/>
   <feColorMatrix values="0 0 0 0 0 0 0 0 0 0 0 0 0 0 0 0 0 0 0.25 0"/>
   <feBlend in2="BackgroundImageFix" result="effect1_dropShadow_148_58"/>
   <feBlend in="SourceGraphic" in2="effect1_dropShadow_148_58" result="shape"/>
  </filter>
 </defs>
</svg>
